<mxfile host="www.draw.io" modified="2019-12-18T07:44:39.736Z" agent="Mozilla/5.0 (X11; Linux x86_64) AppleWebKit/537.36 (KHTML, like Gecko) Chrome/78.0.3904.97 Safari/537.36" etag="5aktANFt6FnDkuAZS2Z-" version="12.4.3" type="github" pages="1">
  <diagram id="6a731a19-8d31-9384-78a2-239565b7b9f0" name="Page-1">
    <mxGraphModel dx="835" dy="634" grid="1" gridSize="10" guides="1" tooltips="1" connect="1" arrows="1" fold="1" page="1" pageScale="1" pageWidth="1169" pageHeight="827" background="#ffffff" math="0" shadow="0">
      <root>
        <mxCell id="0"/>
        <mxCell id="1" parent="0"/>
        <mxCell id="mCbQTqABaY7V2KOwf3k1-147" value="" style="strokeWidth=2;html=1;shape=mxgraph.flowchart.annotation_2;align=left;labelPosition=right;pointerEvents=1;direction=south;allowArrows=1;connectable=1;portConstraintRotation=0;noLabel=0;part=0;perimeter=rectanglePerimeter;" parent="1" vertex="1">
          <mxGeometry x="90.24999999999997" y="1870" width="440" height="50" as="geometry"/>
        </mxCell>
        <mxCell id="mCbQTqABaY7V2KOwf3k1-128" value="" style="strokeWidth=2;html=1;shape=mxgraph.flowchart.annotation_2;align=left;labelPosition=right;pointerEvents=1;direction=south;allowArrows=1;connectable=1;portConstraintRotation=0;noLabel=0;part=0;perimeter=rectanglePerimeter;" parent="1" vertex="1">
          <mxGeometry x="97" y="1080" width="440" height="50" as="geometry"/>
        </mxCell>
        <mxCell id="2" value="开始" style="shape=mxgraph.flowchart.terminator;strokeWidth=2;gradientColor=none;gradientDirection=north;fontStyle=0;html=1;" parent="1" vertex="1">
          <mxGeometry x="262.25" y="20" width="120" height="30" as="geometry"/>
        </mxCell>
        <mxCell id="mCbQTqABaY7V2KOwf3k1-58" value="" style="edgeStyle=orthogonalEdgeStyle;rounded=0;orthogonalLoop=1;jettySize=auto;html=1;entryX=0.5;entryY=0;entryDx=0;entryDy=0;" parent="1" source="6" target="mCbQTqABaY7V2KOwf3k1-87" edge="1">
          <mxGeometry relative="1" as="geometry">
            <mxPoint x="321.5" y="317" as="targetPoint"/>
          </mxGeometry>
        </mxCell>
        <mxCell id="_JcKyCFG9YBYjNM6MLEk-13" style="edgeStyle=orthogonalEdgeStyle;rounded=0;orthogonalLoop=1;jettySize=auto;html=1;entryX=0.5;entryY=0;entryDx=0;entryDy=0;entryPerimeter=0;" edge="1" parent="1" source="6" target="mCbQTqABaY7V2KOwf3k1-59">
          <mxGeometry relative="1" as="geometry">
            <mxPoint x="369" y="1200" as="targetPoint"/>
            <Array as="points">
              <mxPoint x="690" y="209"/>
              <mxPoint x="690" y="850"/>
              <mxPoint x="317" y="850"/>
            </Array>
          </mxGeometry>
        </mxCell>
        <mxCell id="6" value="学生管理" style="shape=mxgraph.flowchart.decision;strokeWidth=2;gradientColor=none;gradientDirection=north;fontStyle=0;html=1;" parent="1" vertex="1">
          <mxGeometry x="272.5" y="180" width="98" height="57" as="geometry"/>
        </mxCell>
        <mxCell id="mCbQTqABaY7V2KOwf3k1-137" style="edgeStyle=orthogonalEdgeStyle;rounded=0;orthogonalLoop=1;jettySize=auto;html=1;entryX=0.5;entryY=0;entryDx=0;entryDy=0;" parent="1" source="mCbQTqABaY7V2KOwf3k1-59" target="mCbQTqABaY7V2KOwf3k1-121" edge="1">
          <mxGeometry relative="1" as="geometry"/>
        </mxCell>
        <mxCell id="_JcKyCFG9YBYjNM6MLEk-14" style="edgeStyle=orthogonalEdgeStyle;rounded=0;orthogonalLoop=1;jettySize=auto;html=1;entryX=0.5;entryY=0;entryDx=0;entryDy=0;entryPerimeter=0;" edge="1" parent="1" source="mCbQTqABaY7V2KOwf3k1-59" target="mCbQTqABaY7V2KOwf3k1-64">
          <mxGeometry relative="1" as="geometry">
            <mxPoint x="320" y="2120" as="targetPoint"/>
            <Array as="points">
              <mxPoint x="690" y="910"/>
              <mxPoint x="690" y="1670"/>
              <mxPoint x="311" y="1670"/>
            </Array>
          </mxGeometry>
        </mxCell>
        <mxCell id="mCbQTqABaY7V2KOwf3k1-59" value="成绩管理" style="shape=mxgraph.flowchart.decision;strokeWidth=2;gradientColor=none;gradientDirection=north;fontStyle=0;html=1;" parent="1" vertex="1">
          <mxGeometry x="268" y="880" width="98" height="60" as="geometry"/>
        </mxCell>
        <mxCell id="mCbQTqABaY7V2KOwf3k1-157" style="edgeStyle=orthogonalEdgeStyle;rounded=0;orthogonalLoop=1;jettySize=auto;html=1;" parent="1" source="mCbQTqABaY7V2KOwf3k1-64" target="mCbQTqABaY7V2KOwf3k1-140" edge="1">
          <mxGeometry relative="1" as="geometry"/>
        </mxCell>
        <mxCell id="_JcKyCFG9YBYjNM6MLEk-16" style="edgeStyle=orthogonalEdgeStyle;rounded=0;orthogonalLoop=1;jettySize=auto;html=1;entryX=0.5;entryY=1;entryDx=0;entryDy=0;entryPerimeter=0;" edge="1" parent="1" source="mCbQTqABaY7V2KOwf3k1-64" target="mCbQTqABaY7V2KOwf3k1-90">
          <mxGeometry relative="1" as="geometry">
            <mxPoint x="316" y="2630" as="targetPoint"/>
            <Array as="points">
              <mxPoint x="690" y="1729"/>
              <mxPoint x="690" y="2360"/>
              <mxPoint x="317" y="2360"/>
            </Array>
          </mxGeometry>
        </mxCell>
        <mxCell id="mCbQTqABaY7V2KOwf3k1-64" value="课程管理" style="shape=mxgraph.flowchart.decision;strokeWidth=2;gradientColor=none;gradientDirection=north;fontStyle=0;html=1;" parent="1" vertex="1">
          <mxGeometry x="253.75" y="1700" width="113" height="57" as="geometry"/>
        </mxCell>
        <mxCell id="7" style="fontStyle=1;strokeColor=#003366;strokeWidth=1;html=1;" parent="1" source="2" edge="1">
          <mxGeometry relative="1" as="geometry">
            <mxPoint x="322.25" y="90" as="targetPoint"/>
          </mxGeometry>
        </mxCell>
        <mxCell id="mCbQTqABaY7V2KOwf3k1-56" value="" style="edgeStyle=orthogonalEdgeStyle;rounded=0;orthogonalLoop=1;jettySize=auto;html=1;" parent="1" source="mCbQTqABaY7V2KOwf3k1-55" target="6" edge="1">
          <mxGeometry relative="1" as="geometry"/>
        </mxCell>
        <mxCell id="mCbQTqABaY7V2KOwf3k1-55" value="功能选择" style="rounded=0;whiteSpace=wrap;html=1;" parent="1" vertex="1">
          <mxGeometry x="262.25" y="90" width="120" height="30" as="geometry"/>
        </mxCell>
        <mxCell id="mCbQTqABaY7V2KOwf3k1-61" value="否" style="text;fontStyle=0;html=1;strokeColor=none;gradientColor=none;fillColor=none;strokeWidth=2;" parent="1" vertex="1">
          <mxGeometry x="370.5" y="180" width="40" height="26" as="geometry"/>
        </mxCell>
        <mxCell id="mCbQTqABaY7V2KOwf3k1-66" value="否" style="text;fontStyle=0;html=1;strokeColor=none;gradientColor=none;fillColor=none;strokeWidth=2;" parent="1" vertex="1">
          <mxGeometry x="366" y="880" width="40" height="26" as="geometry"/>
        </mxCell>
        <mxCell id="mCbQTqABaY7V2KOwf3k1-67" value="是" style="text;fontStyle=0;html=1;strokeColor=none;gradientColor=none;fillColor=none;strokeWidth=2;" parent="1" vertex="1">
          <mxGeometry x="282.5" y="237" width="40" height="26" as="geometry"/>
        </mxCell>
        <mxCell id="mCbQTqABaY7V2KOwf3k1-70" value="是" style="text;fontStyle=0;html=1;strokeColor=none;gradientColor=none;fillColor=none;strokeWidth=2;" parent="1" vertex="1">
          <mxGeometry x="262.25" y="940" width="53" height="26" as="geometry"/>
        </mxCell>
        <mxCell id="mCbQTqABaY7V2KOwf3k1-71" value="是" style="text;fontStyle=0;html=1;strokeColor=none;gradientColor=none;fillColor=none;strokeWidth=2;" parent="1" vertex="1">
          <mxGeometry x="257.83" y="1757" width="40" height="26" as="geometry"/>
        </mxCell>
        <mxCell id="mCbQTqABaY7V2KOwf3k1-86" value="否" style="text;fontStyle=0;html=1;strokeColor=none;gradientColor=none;fillColor=none;strokeWidth=2;" parent="1" vertex="1">
          <mxGeometry x="362.83" y="1700" width="29" as="geometry"/>
        </mxCell>
        <mxCell id="mCbQTqABaY7V2KOwf3k1-97" style="edgeStyle=orthogonalEdgeStyle;rounded=0;orthogonalLoop=1;jettySize=auto;html=1;" parent="1" source="mCbQTqABaY7V2KOwf3k1-87" target="mCbQTqABaY7V2KOwf3k1-96" edge="1">
          <mxGeometry relative="1" as="geometry"/>
        </mxCell>
        <mxCell id="mCbQTqABaY7V2KOwf3k1-87" value="学生管理界面" style="rounded=0;whiteSpace=wrap;html=1;" parent="1" vertex="1">
          <mxGeometry x="261.25" y="263" width="120" height="50" as="geometry"/>
        </mxCell>
        <mxCell id="mCbQTqABaY7V2KOwf3k1-90" value="&lt;span style=&quot;white-space: normal&quot;&gt;退出系统&lt;/span&gt;" style="shape=mxgraph.flowchart.terminator;strokeWidth=2;gradientColor=none;gradientDirection=north;fontStyle=0;html=1;flipH=0;flipV=0;direction=west;whiteSpace=wrap;" parent="1" vertex="1">
          <mxGeometry x="237" y="2400" width="160" height="33" as="geometry"/>
        </mxCell>
        <mxCell id="mCbQTqABaY7V2KOwf3k1-119" style="edgeStyle=orthogonalEdgeStyle;rounded=0;orthogonalLoop=1;jettySize=auto;html=1;entryX=0;entryY=0.5;entryDx=0;entryDy=0;" parent="1" source="mCbQTqABaY7V2KOwf3k1-92" target="mCbQTqABaY7V2KOwf3k1-87" edge="1">
          <mxGeometry relative="1" as="geometry">
            <mxPoint x="21.25" y="283" as="targetPoint"/>
            <Array as="points">
              <mxPoint x="321" y="800"/>
              <mxPoint x="21" y="800"/>
              <mxPoint x="21" y="288"/>
            </Array>
          </mxGeometry>
        </mxCell>
        <mxCell id="mCbQTqABaY7V2KOwf3k1-92" value="通过数据源调用学生管理的存储过程，并更新界面数据显示" style="rounded=0;whiteSpace=wrap;html=1;" parent="1" vertex="1">
          <mxGeometry x="261" y="720" width="120" height="60" as="geometry"/>
        </mxCell>
        <mxCell id="mCbQTqABaY7V2KOwf3k1-115" style="edgeStyle=orthogonalEdgeStyle;rounded=0;orthogonalLoop=1;jettySize=auto;html=1;" parent="1" source="mCbQTqABaY7V2KOwf3k1-98" edge="1">
          <mxGeometry relative="1" as="geometry">
            <mxPoint x="321" y="720" as="targetPoint"/>
            <Array as="points">
              <mxPoint x="102.25" y="703"/>
              <mxPoint x="322.25" y="703"/>
            </Array>
          </mxGeometry>
        </mxCell>
        <mxCell id="mCbQTqABaY7V2KOwf3k1-98" value="查询某个学生信息" style="rounded=0;whiteSpace=wrap;html=1;" parent="1" vertex="1">
          <mxGeometry x="43.25" y="390" width="120" height="50" as="geometry"/>
        </mxCell>
        <mxCell id="mCbQTqABaY7V2KOwf3k1-118" style="edgeStyle=orthogonalEdgeStyle;rounded=0;orthogonalLoop=1;jettySize=auto;html=1;" parent="1" source="mCbQTqABaY7V2KOwf3k1-100" edge="1">
          <mxGeometry relative="1" as="geometry">
            <mxPoint x="321" y="720" as="targetPoint"/>
            <Array as="points">
              <mxPoint x="542.25" y="703"/>
              <mxPoint x="322.25" y="703"/>
            </Array>
          </mxGeometry>
        </mxCell>
        <mxCell id="mCbQTqABaY7V2KOwf3k1-100" value="删除某个学生信息" style="rounded=0;whiteSpace=wrap;html=1;" parent="1" vertex="1">
          <mxGeometry x="483.25" y="390" width="120" height="50" as="geometry"/>
        </mxCell>
        <mxCell id="mCbQTqABaY7V2KOwf3k1-116" style="edgeStyle=orthogonalEdgeStyle;rounded=0;orthogonalLoop=1;jettySize=auto;html=1;" parent="1" source="mCbQTqABaY7V2KOwf3k1-104" edge="1">
          <mxGeometry relative="1" as="geometry">
            <mxPoint x="321" y="720" as="targetPoint"/>
            <Array as="points">
              <mxPoint x="242.25" y="603"/>
              <mxPoint x="322.25" y="603"/>
            </Array>
          </mxGeometry>
        </mxCell>
        <mxCell id="mCbQTqABaY7V2KOwf3k1-104" value="添加学生信息" style="rounded=0;whiteSpace=wrap;html=1;" parent="1" vertex="1">
          <mxGeometry x="183.25" y="390" width="120" height="50" as="geometry"/>
        </mxCell>
        <mxCell id="mCbQTqABaY7V2KOwf3k1-117" style="edgeStyle=orthogonalEdgeStyle;rounded=0;orthogonalLoop=1;jettySize=auto;html=1;" parent="1" source="mCbQTqABaY7V2KOwf3k1-105" edge="1">
          <mxGeometry relative="1" as="geometry">
            <mxPoint x="321" y="720" as="targetPoint"/>
            <Array as="points">
              <mxPoint x="391.25" y="603"/>
              <mxPoint x="322.25" y="603"/>
            </Array>
          </mxGeometry>
        </mxCell>
        <mxCell id="mCbQTqABaY7V2KOwf3k1-105" value="修改学生信息" style="rounded=0;whiteSpace=wrap;html=1;" parent="1" vertex="1">
          <mxGeometry x="332.25" y="390" width="120" height="50" as="geometry"/>
        </mxCell>
        <mxCell id="mCbQTqABaY7V2KOwf3k1-138" style="edgeStyle=orthogonalEdgeStyle;rounded=0;orthogonalLoop=1;jettySize=auto;html=1;entryX=0;entryY=0.5;entryDx=0;entryDy=0;entryPerimeter=0;" parent="1" source="mCbQTqABaY7V2KOwf3k1-121" target="mCbQTqABaY7V2KOwf3k1-128" edge="1">
          <mxGeometry relative="1" as="geometry"/>
        </mxCell>
        <mxCell id="mCbQTqABaY7V2KOwf3k1-121" value="学生成绩管理界面" style="rounded=0;whiteSpace=wrap;html=1;" parent="1" vertex="1">
          <mxGeometry x="257" y="980" width="120" height="50" as="geometry"/>
        </mxCell>
        <mxCell id="mCbQTqABaY7V2KOwf3k1-122" style="edgeStyle=orthogonalEdgeStyle;rounded=0;orthogonalLoop=1;jettySize=auto;html=1;entryX=0;entryY=0.5;entryDx=0;entryDy=0;" parent="1" source="mCbQTqABaY7V2KOwf3k1-123" edge="1" target="mCbQTqABaY7V2KOwf3k1-121">
          <mxGeometry relative="1" as="geometry">
            <mxPoint x="195.5" y="1009" as="targetPoint"/>
            <Array as="points">
              <mxPoint x="317" y="1600"/>
              <mxPoint x="26" y="1600"/>
              <mxPoint x="26" y="1005"/>
            </Array>
          </mxGeometry>
        </mxCell>
        <mxCell id="mCbQTqABaY7V2KOwf3k1-123" value="通过数据源调用学生成绩管理的存储过程，并更新界面数据显示" style="rounded=0;whiteSpace=wrap;html=1;" parent="1" vertex="1">
          <mxGeometry x="257" y="1520" width="120" height="60" as="geometry"/>
        </mxCell>
        <mxCell id="mCbQTqABaY7V2KOwf3k1-129" style="edgeStyle=orthogonalEdgeStyle;rounded=0;orthogonalLoop=1;jettySize=auto;html=1;entryX=0.5;entryY=0;entryDx=0;entryDy=0;" parent="1" source="mCbQTqABaY7V2KOwf3k1-130" target="mCbQTqABaY7V2KOwf3k1-123" edge="1">
          <mxGeometry relative="1" as="geometry">
            <mxPoint x="317" y="1464" as="targetPoint"/>
            <Array as="points">
              <mxPoint x="97" y="1464"/>
              <mxPoint x="317" y="1464"/>
            </Array>
          </mxGeometry>
        </mxCell>
        <mxCell id="mCbQTqABaY7V2KOwf3k1-130" value="查询某个学生的成绩信息" style="rounded=0;whiteSpace=wrap;html=1;" parent="1" vertex="1">
          <mxGeometry x="43.25" y="1130" width="120" height="50" as="geometry"/>
        </mxCell>
        <mxCell id="mCbQTqABaY7V2KOwf3k1-131" style="edgeStyle=orthogonalEdgeStyle;rounded=0;orthogonalLoop=1;jettySize=auto;html=1;entryX=0.5;entryY=0;entryDx=0;entryDy=0;" parent="1" target="mCbQTqABaY7V2KOwf3k1-123" edge="1" source="mCbQTqABaY7V2KOwf3k1-132">
          <mxGeometry relative="1" as="geometry">
            <mxPoint x="317" y="1464" as="targetPoint"/>
            <Array as="points">
              <mxPoint x="537" y="1464"/>
              <mxPoint x="317" y="1464"/>
            </Array>
            <mxPoint x="537" y="1254" as="sourcePoint"/>
          </mxGeometry>
        </mxCell>
        <mxCell id="mCbQTqABaY7V2KOwf3k1-132" value="删除某个学生的成绩信息" style="rounded=0;whiteSpace=wrap;html=1;" parent="1" vertex="1">
          <mxGeometry x="482.25" y="1130" width="120" height="50" as="geometry"/>
        </mxCell>
        <mxCell id="mCbQTqABaY7V2KOwf3k1-133" style="edgeStyle=orthogonalEdgeStyle;rounded=0;orthogonalLoop=1;jettySize=auto;html=1;entryX=0.5;entryY=0;entryDx=0;entryDy=0;" parent="1" source="mCbQTqABaY7V2KOwf3k1-134" target="mCbQTqABaY7V2KOwf3k1-123" edge="1">
          <mxGeometry relative="1" as="geometry">
            <mxPoint x="317" y="1564" as="targetPoint"/>
            <Array as="points">
              <mxPoint x="237" y="1364"/>
              <mxPoint x="317" y="1364"/>
            </Array>
          </mxGeometry>
        </mxCell>
        <mxCell id="mCbQTqABaY7V2KOwf3k1-134" value="添加某个学生的成绩信息" style="rounded=0;whiteSpace=wrap;html=1;" parent="1" vertex="1">
          <mxGeometry x="183.25" y="1130" width="120" height="50" as="geometry"/>
        </mxCell>
        <mxCell id="mCbQTqABaY7V2KOwf3k1-135" style="edgeStyle=orthogonalEdgeStyle;rounded=0;orthogonalLoop=1;jettySize=auto;html=1;entryX=0.5;entryY=0;entryDx=0;entryDy=0;" parent="1" source="mCbQTqABaY7V2KOwf3k1-136" target="mCbQTqABaY7V2KOwf3k1-123" edge="1">
          <mxGeometry relative="1" as="geometry">
            <mxPoint x="317" y="1584" as="targetPoint"/>
            <Array as="points">
              <mxPoint x="386" y="1364"/>
              <mxPoint x="317" y="1364"/>
            </Array>
          </mxGeometry>
        </mxCell>
        <mxCell id="mCbQTqABaY7V2KOwf3k1-136" value="修改学生的成绩信息" style="rounded=0;whiteSpace=wrap;html=1;" parent="1" vertex="1">
          <mxGeometry x="332.25" y="1130" width="120" height="50" as="geometry"/>
        </mxCell>
        <mxCell id="mCbQTqABaY7V2KOwf3k1-139" style="edgeStyle=orthogonalEdgeStyle;rounded=0;orthogonalLoop=1;jettySize=auto;html=1;" parent="1" source="mCbQTqABaY7V2KOwf3k1-140" target="mCbQTqABaY7V2KOwf3k1-147" edge="1">
          <mxGeometry relative="1" as="geometry"/>
        </mxCell>
        <mxCell id="mCbQTqABaY7V2KOwf3k1-140" value="课程管理界面" style="rounded=0;whiteSpace=wrap;html=1;" parent="1" vertex="1">
          <mxGeometry x="250.25000000000003" y="1783" width="120" height="50" as="geometry"/>
        </mxCell>
        <mxCell id="mCbQTqABaY7V2KOwf3k1-141" style="edgeStyle=orthogonalEdgeStyle;rounded=0;orthogonalLoop=1;jettySize=auto;html=1;entryX=0;entryY=0.5;entryDx=0;entryDy=0;" parent="1" source="mCbQTqABaY7V2KOwf3k1-142" target="mCbQTqABaY7V2KOwf3k1-140" edge="1">
          <mxGeometry relative="1" as="geometry">
            <mxPoint x="14.169999999999996" y="1783" as="targetPoint"/>
            <Array as="points">
              <mxPoint x="14" y="2310"/>
              <mxPoint x="14" y="1808"/>
            </Array>
          </mxGeometry>
        </mxCell>
        <mxCell id="mCbQTqABaY7V2KOwf3k1-142" value="通过数据源调用课程管理的存储过程，并更新界面数据显示" style="rounded=0;whiteSpace=wrap;html=1;" parent="1" vertex="1">
          <mxGeometry x="250.25000000000003" y="2280" width="120" height="60" as="geometry"/>
        </mxCell>
        <mxCell id="mCbQTqABaY7V2KOwf3k1-148" style="edgeStyle=orthogonalEdgeStyle;rounded=0;orthogonalLoop=1;jettySize=auto;html=1;entryX=0.5;entryY=0;entryDx=0;entryDy=0;" parent="1" source="mCbQTqABaY7V2KOwf3k1-149" target="mCbQTqABaY7V2KOwf3k1-142" edge="1">
          <mxGeometry relative="1" as="geometry">
            <mxPoint x="310.67" y="2243" as="targetPoint"/>
            <Array as="points">
              <mxPoint x="90.66999999999997" y="2243"/>
              <mxPoint x="310.67" y="2243"/>
            </Array>
          </mxGeometry>
        </mxCell>
        <mxCell id="mCbQTqABaY7V2KOwf3k1-149" value="查询某个课程信息" style="rounded=0;whiteSpace=wrap;html=1;" parent="1" vertex="1">
          <mxGeometry x="30.249999999999993" y="1920" width="120" height="50" as="geometry"/>
        </mxCell>
        <mxCell id="mCbQTqABaY7V2KOwf3k1-150" style="edgeStyle=orthogonalEdgeStyle;rounded=0;orthogonalLoop=1;jettySize=auto;html=1;entryX=0.5;entryY=0;entryDx=0;entryDy=0;" parent="1" source="mCbQTqABaY7V2KOwf3k1-151" target="mCbQTqABaY7V2KOwf3k1-142" edge="1">
          <mxGeometry relative="1" as="geometry">
            <mxPoint x="310.67" y="2243" as="targetPoint"/>
            <Array as="points">
              <mxPoint x="530.67" y="2243"/>
              <mxPoint x="310.67" y="2243"/>
            </Array>
          </mxGeometry>
        </mxCell>
        <mxCell id="mCbQTqABaY7V2KOwf3k1-151" value="删除某个课程信息" style="rounded=0;whiteSpace=wrap;html=1;" parent="1" vertex="1">
          <mxGeometry x="470.25" y="1920" width="120" height="50" as="geometry"/>
        </mxCell>
        <mxCell id="mCbQTqABaY7V2KOwf3k1-152" style="edgeStyle=orthogonalEdgeStyle;rounded=0;orthogonalLoop=1;jettySize=auto;html=1;entryX=0.5;entryY=0;entryDx=0;entryDy=0;" parent="1" source="mCbQTqABaY7V2KOwf3k1-153" target="mCbQTqABaY7V2KOwf3k1-142" edge="1">
          <mxGeometry relative="1" as="geometry">
            <mxPoint x="310.67" y="2343" as="targetPoint"/>
            <Array as="points">
              <mxPoint x="230.67000000000002" y="2143"/>
              <mxPoint x="310.67" y="2143"/>
            </Array>
          </mxGeometry>
        </mxCell>
        <mxCell id="mCbQTqABaY7V2KOwf3k1-153" value="添加课程信息" style="rounded=0;whiteSpace=wrap;html=1;" parent="1" vertex="1">
          <mxGeometry x="170.25000000000003" y="1920" width="120" height="50" as="geometry"/>
        </mxCell>
        <mxCell id="mCbQTqABaY7V2KOwf3k1-154" style="edgeStyle=orthogonalEdgeStyle;rounded=0;orthogonalLoop=1;jettySize=auto;html=1;entryX=0.5;entryY=0;entryDx=0;entryDy=0;" parent="1" source="mCbQTqABaY7V2KOwf3k1-155" target="mCbQTqABaY7V2KOwf3k1-142" edge="1">
          <mxGeometry relative="1" as="geometry">
            <mxPoint x="310.67" y="2363" as="targetPoint"/>
            <Array as="points">
              <mxPoint x="379.67" y="2143"/>
              <mxPoint x="310.67" y="2143"/>
            </Array>
          </mxGeometry>
        </mxCell>
        <mxCell id="mCbQTqABaY7V2KOwf3k1-155" value="修改课程信息" style="rounded=0;whiteSpace=wrap;html=1;" parent="1" vertex="1">
          <mxGeometry x="319.25" y="1920" width="120" height="50" as="geometry"/>
        </mxCell>
        <mxCell id="mCbQTqABaY7V2KOwf3k1-96" value="" style="strokeWidth=2;html=1;shape=mxgraph.flowchart.annotation_2;align=left;labelPosition=right;pointerEvents=1;direction=south;allowArrows=1;connectable=1;portConstraintRotation=0;noLabel=0;part=0;perimeter=rectanglePerimeter;" parent="1" vertex="1">
          <mxGeometry x="102.25" y="340" width="440" height="50" as="geometry"/>
        </mxCell>
      </root>
    </mxGraphModel>
  </diagram>
</mxfile>
